<?xml version="1.0" encoding="UTF-8" standalone="no"?>
<svg width="91px" height="63px" viewBox="0 0 91 63" version="1.1" xmlns="http://www.w3.org/2000/svg" xmlns:xlink="http://www.w3.org/1999/xlink">
    <!-- Generator: Sketch 39.1 (31720) - http://www.bohemiancoding.com/sketch -->
    <title>enveloppe copy</title>
    <desc>Created with Sketch.</desc>
    <defs>
        <rect id="path-1" x="2.09596229e-13" y="1.15907284e-12" width="87.5479452" height="57.8414634" rx="6.05453965"></rect>
        <mask id="mask-2" maskContentUnits="userSpaceOnUse" maskUnits="objectBoundingBox" x="0" y="0" width="87.5479452" height="57.8414634" fill="white">
            <use xlink:href="#path-1"></use>
        </mask>
    </defs>
    <g id="-illustration" stroke="none" stroke-width="1" fill="none" fill-rule="evenodd">
        <g id="button-for-gallery-copy" transform="translate(-556.000000, -241.000000)" stroke="#F2B3A3" fill="#FFFFFF">
            <g id="Group-2" transform="translate(556.000000, 241.000000)">
                <g id="enveloppe-copy" transform="translate(45.798359, 31.878306) rotate(-3.000000) translate(-45.798359, -31.878306) translate(1.798359, 2.878306)">
                    <use id="Rectangle-1982" mask="url(#mask-2)" stroke-width="8" xlink:href="#path-1"></use>
                    <polygon id="Path-2985" stroke-width="4" stroke-linecap="round" stroke-linejoin="bevel" points="6.03778932 3.04428755 44.44092 31.9727506 79.6919128 3.04428755"></polygon>
                    <path d="M3.28151028,27.0129153 L37.1791787,53.8194504 C37.1791787,53.8194504 41.2259036,49.8675858 44.5353622,49.9867887 C47.4146442,50.0904971 51.6463346,54.5612562 51.6463346,54.5612562 C63.0094731,45.9717841 82.2293291,27.0129153 82.2293291,27.0129153 L3.28151028,27.0129153 Z" id="Path-2985-Copy" stroke-width="4" stroke-linecap="round" stroke-linejoin="bevel" transform="translate(42.755420, 40.787086) scale(1, -1) translate(-42.755420, -40.787086) "></path>
                </g>
            </g>
        </g>
    </g>
</svg>