<?xml version="1.0" encoding="UTF-8" standalone="no"?>
<svg width="70px" height="26px" viewBox="0 0 70 26" version="1.1" xmlns="http://www.w3.org/2000/svg" xmlns:xlink="http://www.w3.org/1999/xlink">
    <!-- Generator: Sketch 40 (33762) - http://www.bohemiancoding.com/sketch -->
    <title>New label</title>
    <desc>Created with Sketch.</desc>
    <defs></defs>
    <g id="Welcome" stroke="none" stroke-width="1" fill="none" fill-rule="evenodd">
        <g id="Icon" transform="translate(-1040.000000, -85.000000)">
            <g id="New-label" transform="translate(1040.000000, 85.000000)">
                <rect id="Rectangle-22" fill="#EF687B" x="0" y="0" width="70" height="26" rx="6"></rect>
                <path d="M18.8515505,18.08 C18.8515505,18.752 19.3955505,19.296 20.0675505,19.296 C20.7395505,19.296 21.2835505,18.752 21.2835505,18.08 L21.2835505,12.08 L26.2115505,18.544 C26.5475505,18.976 26.8995505,19.264 27.4915505,19.264 L27.5715505,19.264 C28.2595505,19.264 28.8035505,18.72 28.8035505,18.032 L28.8035505,9.12 C28.8035505,8.448 28.2595505,7.904 27.5875505,7.904 C26.9155505,7.904 26.3715505,8.448 26.3715505,9.12 L26.3715505,14.896 L21.6195505,8.656 C21.2835505,8.224 20.9315505,7.936 20.3395505,7.936 L20.0835505,7.936 C19.3955505,7.936 18.8515505,8.48 18.8515505,9.168 L18.8515505,18.08 Z M33.2035505,14.24 C33.3955505,13.136 34.0515505,12.416 35.0595505,12.416 C36.0835505,12.416 36.7235505,13.152 36.8675505,14.24 L33.2035505,14.24 Z M38.2755505,18.352 C38.4515505,18.192 38.5955505,17.952 38.5955505,17.632 C38.5955505,17.088 38.1955505,16.672 37.6515505,16.672 C37.3955505,16.672 37.2355505,16.736 37.0595505,16.864 C36.5635505,17.232 36.0035505,17.44 35.3315505,17.44 C34.2435505,17.44 33.4755505,16.864 33.2355505,15.76 L38.0515505,15.76 C38.6915505,15.76 39.1875505,15.296 39.1875505,14.592 C39.1875505,12.816 37.9235505,10.464 35.0595505,10.464 C32.5635505,10.464 30.8195505,12.48 30.8195505,14.928 L30.8195505,14.96 C30.8195505,17.584 32.7235505,19.392 35.2995505,19.392 C36.5475505,19.392 37.5235505,18.992 38.2755505,18.352 L38.2755505,18.352 Z M43.7315505,19.36 L43.8115505,19.36 C44.4035505,19.36 44.8995505,19.024 45.1235505,18.32 L46.4995505,14 L47.8595505,18.32 C48.0835505,19.024 48.5795505,19.36 49.1715505,19.36 L49.2515505,19.36 C49.8435505,19.36 50.3395505,19.024 50.5955505,18.272 L52.7555505,12.144 C52.7875505,12.032 52.8355505,11.808 52.8355505,11.648 C52.8355505,11.04 52.3715505,10.528 51.6995505,10.528 C51.0595505,10.528 50.6915505,10.944 50.5315505,11.456 L49.1875505,15.84 L47.8275505,11.488 C47.6515505,10.912 47.2035505,10.512 46.5795505,10.512 L46.4355505,10.512 C45.8115505,10.512 45.3635505,10.912 45.1875505,11.488 L43.8435505,15.824 L42.5315505,11.472 C42.3555505,10.912 41.9555505,10.528 41.3475505,10.528 C40.6275505,10.528 40.1795505,11.072 40.1795505,11.632 C40.1795505,11.84 40.2435505,12.08 40.2915505,12.224 L42.3875505,18.272 C42.6435505,19.024 43.1395505,19.36 43.7315505,19.36 L43.7315505,19.36 Z" id="New" fill="#FFFFFF"></path>
            </g>
        </g>
    </g>
</svg>